<svg viewBox="12 12 24 24" xmlns="http://www.w3.org/2000/svg"><path fill="#e8422c" d="M33.5 12h-19a2.507 2.507 0 00-2.5 2.5v19c0 1.375 1.125 2.5 2.5 2.5h19c1.375 0 2.5-1.125 2.5-2.5v-19c0-1.375-1.125-2.5-2.5-2.5zm-15 4.734a1.766 1.766 0 110 3.533 1.766 1.766 0 010-3.533zm1.594 14.474h-3.116v-10.24h3.116v10.24zm11.906 0h-3.111v-5.092c0-1.163-.023-2.657-1.619-2.657-1.621 0-2.204 1.266-2.204 2.573v5.176h-3.113v-10.24h2.988v1.369h.042c.416-.787 1.768-1.618 3.283-1.618 3.151 0 3.734 2.075 3.734 4.774v5.715z"/></svg>
