<?xml version="1.0" encoding="utf-8"?>
<svg version="1.1" xmlns="http://www.w3.org/2000/svg" xmlns:xlink="http://www.w3.org/1999/xlink" x="0px" y="0px"
	 viewBox="0 0 715.4 399.6" style="enable-background:new 0 0 715.4 399.6;" xml:space="preserve">
  <g>
    <path fill="#f2f3f3" d="M0.3,191L202.8,85v53.7c0,3.8-1,7.4-3,10.6s-5.2,6-9.5,8.4l-71,38.2c-4.3,2.3-8.9,4.3-13.8,5.9c-4.8,1.6-9.9,3-15.2,4.4
      c5.3,1.3,10.4,2.7,15.2,4.1c4.8,1.4,9.4,3.3,13.8,5.6l71,38.5c4.3,2.3,7.5,5.1,9.5,8.3c2,3.2,3,6.7,3,10.5V327L0.3,221.3V191z"/>
    <path fill="#f2f3f3" d="M325.3,371.8c-1.8,4.5-4.2,8.5-7.1,12c-2.9,3.5-6.2,6.4-9.8,8.8c-3.6,2.3-7.4,4.1-11.5,5.2c-4.1,1.2-8.1,1.8-12.1,1.8h-33
      l142-372.8c3.3-8.5,8.4-15,15.2-19.5c6.8-4.5,14.8-6.8,23.8-6.8h33L325.3,371.8z"/>
    <path fill="#f2f3f3" d="M715.3,221.3L512.8,327v-53.8c0-3.8,1-7.3,3-10.5c2-3.2,5.2-5.9,9.5-8.3l71-38.5c4.2-2.3,8.7-4.2,13.6-5.6
      c4.9-1.4,10-2.8,15.4-4.1c-5.3-1.3-10.5-2.8-15.4-4.4c-4.9-1.6-9.5-3.5-13.6-5.9l-71-38.2c-4.3-2.3-7.5-5.1-9.5-8.4s-3-6.8-3-10.6
      V85l202.5,106V221.3z"/>
  </g>
</svg>
