<?xml version="1.0" encoding="utf-8"?>
<svg xmlns="http://www.w3.org/2000/svg" xmlns:xlink="http://www.w3.org/1999/xlink" viewBox="0 0 600 300">
	<style>
		path {
			stroke: #e8422c;
			stroke-width: .075%;
			opacity: .2;
		}

		path:nth-child(odd) {
			stroke: #fff;
		}

		circle {
			fill: #5a5555;
			r: .75;
		}

		circle:nth-child(odd) {
			fill: #e8422c;
			r: 1;
			opacity: .2;
		}
	</style>

	<g>

		<path d="M0,20 L310,50"/>
		<path d="M0,30 L70,60"/>
		<path d="M70,60 L20,180"/>
		<path d="M70,60 L310,50"/>
		<path d="M310,50 L400,90"/>
		<path d="M310,50 L470,240"/>
		<path d="M310,50 L600,70"/>
		<path d="M400,90 L470,240"/>
		<path d="M400,90 L500,150"/>
		<path d="M400,90 L520,200"/>
		<path d="M400,90 L600,80"/>
		<path d="M470,240 L520,200"/>
		<path d="M470,240 L390,260"/>
		<path d="M470,240 L570,250"/>
		<path d="M500,150 L520,200"/>
		<path d="M500,150 L600,120"/>
		<path d="M500,150 L600,130"/>
		<path d="M520,200 L600,140"/>
		<path d="M520,200 L600,180"/>
		<path d="M520,200 L570,250"/>
		<path d="M390,260 L570,250"/>
		<path d="M390,260 L370,280"/>
		<path d="M370,280 L140,290"/>
		<path d="M140,290 L40,250"/>
		<path d="M140,290 L20,180"/>
		<path d="M40,250 L20,180"/>
		<path d="M20,180 L0,170"/>




		<circle cx="70" cy="60"/>
		<circle cx="310" cy="50"/>
		<circle cx="400" cy="90"/>
		<circle cx="500" cy="150"/>
		<circle cx="520" cy="200"/>
		<circle cx="470" cy="240"/>
		<circle cx="570" cy="250"/>
		<circle cx="390" cy="260"/>
		<circle cx="370" cy="280"/>
		<circle cx="140" cy="290"/>
		<circle cx="40" cy="250"/>
		<circle cx="20" cy="180"/>

	</g>
</svg>
