<?xml version="1.0" encoding="utf-8"?>
<svg xmlns="http://www.w3.org/2000/svg" xmlns:xlink="http://www.w3.org/1999/xlink" viewBox="0 -100 600 300">
	<style>
		path {
			fill: none;
			stroke: #3b3535;
			stroke-width: .075%;
		}

		path:nth-child(odd) {
			opacity: .4;
		}

		/*
		circle {
			display: none;
			r: 0;
		}
		*/

		.highlight {
			stroke: #e8422c;
			opacity: .6;
		}
	</style>

	<g>
		<path d="M30,175L70,170L160,140L270,160L415,90L500,105L560,40L600,50"/>
		<path d="M70,170L80,190L160,140L195,175L270,160L295,100L370,120L415,90L440,115L500,105L550,150L600,160"/>
		<path d="M140,185L195,175L230,200L295,100L340,165L370,120L400,130L440,115L470,160L510,145L550,150L600,130"/>
		<path d="M140,185L160,140L180,210L195,175L280,215L270,160L320,185L470,160L550,150L560,40"/>
		<path d="M80,190L150,220L180,210L230,200L280,215L320,185L380,225L430,195L475,260L495,280L530,215L570,230L600,260"/>
		<path d="M230,200L270,160L340,165L380,225L400,130L430,195L470,160L530,215L550,150L570,230L600,230"/>
		<path d="M70,170L140,185L180,210L270,160"/>
		<path d="M280,215L295,100L320,185L430,195L440,115L510,145L530,215"/>
		<path d="M295,100L430,195L530,215L600,155"/>
		<path d="M380,225L415,90L495,280"/>
		<path d="M340,165L430,195L570,230L600,225"/>
		<path d="M280,215L370,120L430,195L550,150L600,135"/>
		<path d="M230,200L340,165L470,160L495,280L510,145L600,120"/>
		<path d="M30,175L140,185,230,200,370,120L380,225L470,160L475,260L530,215L560,40L570,230"/>
		<path d="M160,140L280,215L340,165L415,90L510,145L570,230"/>
		<path d="M270,160L400,130L415,90L430,195L495,280L600,155"/>
		<path d="M80,190L180,210 M70,170L195,175 M195,175L295,100 M500,105L600,105 M500,105L600,80 M500,105L600,40 M510,145L600,110 M570,230L600,210 M570,230L600,175 M430,195L510,145L600,30"/>
		<path d="M0,170L30,175L80,190L140,185L150,220L195,175L320,185L340,165L400,130L470,160L500,105L510,145L560,40L600,100" class="highlight"/>

<!--		<circle cx="30" cy="175"/>-->
<!--		<circle cx="70" cy="170"/>-->
<!--		<circle cx="80" cy="190"/>-->
<!--		<circle cx="140" cy="185"/>-->
<!--		<circle cx="150" cy="220"/>-->
<!--		<circle cx="160" cy="140"/>-->
<!--		<circle cx="180" cy="210"/>-->
<!--		<circle cx="195" cy="175"/>-->
<!--		<circle cx="230" cy="200"/>-->
<!--		<circle cx="270" cy="160"/>-->
<!--		<circle cx="280" cy="215"/>-->
<!--		<circle cx="295" cy="100"/>-->
<!--		<circle cx="320" cy="185"/>-->
<!--		<circle cx="340" cy="165"/>-->
<!--		<circle cx="370" cy="120"/>-->
<!--		<circle cx="380" cy="225"/>-->
<!--		<circle cx="400" cy="130"/>-->
<!--		<circle cx="415" cy="90"/>-->
<!--		<circle cx="430" cy="195"/>-->
<!--		<circle cx="440" cy="115"/>-->
<!--		<circle cx="470" cy="160"/>-->
<!--		<circle cx="475" cy="260"/>-->
<!--		<circle cx="495" cy="280"/>-->
<!--		<circle cx="500" cy="105"/>-->
<!--		<circle cx="510" cy="145"/>-->
<!--		<circle cx="530" cy="215"/>-->
<!--		<circle cx="550" cy="150"/>-->
<!--		<circle cx="560" cy="40"/>-->
<!--		<circle cx="570" cy="230"/>-->
	</g>
</svg>
